<svg xmlns="http://www.w3.org/2000/svg" viewBox="0 0 24 24">
	<defs>
		<style>
			.red {
				fill: #da513d;
			}
		</style>
	</defs>
	<path class="red gear" d="M14.4,8.9l-.75.75.7.7.75-.75,1.4.71V11h1v-.69l1.4-.71.75.75.7-.7L19.6,8.9l.71-1.4H21v-1h-.69L19.6,5.1l.75-.75-.7-.7-.75.75-1.4-.71V3h-1v.69l-1.4.71-.75-.75-.7.7.75.75-.71,1.4H13v1h.69Zm.97-3.53L17,4.56l1.63.81L19.44,7l-.81,1.63L17,9.44l-1.63-.81L14.56,7Z"/>
	<path class="red" d="M20.21,12.5H13.5v-.71L12.21,10.5H3.79L2.5,11.79v4.42L3.79,17.5H10.5v.71l1.29,1.29h8.42l1.29-1.29V13.79Zm.29,5.29-.71.71H12.21l-.71-.71V17.5h.71l1.29-1.29V14.5h-1v1.29l-.71.71H4.21l-.71-.71V12.21l.71-.71h7.58l.71.71v.29h-.71L10.5,13.79V15.5h1V14.21l.71-.71h7.58l.71.71Z"/>
</svg>
